<svg width="497" height="497" viewBox="0 0 497 497" fill="none" xmlns="http://www.w3.org/2000/svg">
<rect x="12.5" y="12.5" width="472" height="472" rx="43.5" stroke="#1B1F1B" stroke-width="25"/>
<path d="M174.478 358C159.832 358 148.132 355.135 139.38 349.405C130.629 343.496 124.377 335.439 120.626 325.233C116.875 314.847 115 303.03 115 289.779C115.179 284.408 115.714 279.215 116.608 274.201C117.679 269.009 119.197 264.264 121.162 259.966C123.305 255.49 125.895 251.64 128.932 248.417C132.147 245.015 135.898 242.24 140.184 240.091C134.647 235.973 129.735 230.064 125.449 222.365C121.162 214.486 118.84 204.548 118.483 192.552C118.304 180.376 120.269 169.901 124.377 161.127C128.664 152.353 135.005 145.639 143.399 140.983C151.794 136.328 162.153 134 174.478 134C186.98 134 197.34 136.417 205.556 141.252C213.951 145.907 220.202 152.622 224.31 161.396C228.418 169.99 230.294 180.376 229.937 192.552C229.758 204.727 227.615 214.755 223.507 222.633C219.399 230.333 214.487 236.152 208.771 240.091C213.058 242.24 216.719 245.015 219.756 248.417C222.971 251.64 225.561 255.49 227.525 259.966C229.669 264.264 231.276 269.009 232.348 274.201C233.42 279.215 233.955 284.408 233.955 289.779C234.313 303.03 232.526 314.847 228.597 325.233C224.846 335.439 218.595 343.496 209.843 349.405C201.091 355.135 189.302 358 174.478 358ZM174.478 324.964C179.3 324.964 182.783 323.173 184.926 319.592C187.07 316.011 188.409 311.803 188.945 306.969C189.481 301.955 189.749 297.389 189.749 293.271C189.928 287.72 189.66 282.349 188.945 277.156C188.409 271.963 187.07 267.755 184.926 264.532C182.783 261.13 179.3 259.429 174.478 259.429C169.834 259.429 166.44 261.13 164.297 264.532C162.153 267.755 160.725 271.963 160.01 277.156C159.474 282.169 159.206 287.541 159.206 293.271C159.206 297.389 159.474 301.955 160.01 306.969C160.546 311.982 161.886 316.28 164.029 319.861C166.351 323.263 169.834 324.964 174.478 324.964ZM174.478 223.976C177.514 223.976 180.015 222.812 181.979 220.484C183.944 217.978 185.373 214.307 186.266 209.472C187.338 204.638 187.874 198.639 187.874 191.477C187.874 184.136 186.713 178.317 184.391 174.019C182.247 169.722 178.943 167.573 174.478 167.573C170.012 167.573 166.529 169.722 164.029 174.019C161.707 178.317 160.546 184.046 160.546 191.209C160.546 198.371 160.992 204.459 161.886 209.472C162.957 214.307 164.565 217.978 166.708 220.484C168.851 222.812 171.441 223.976 174.478 223.976Z" fill="#1B1F1B"/>
<path d="M261 282.455L328 349.455L395 282.455" stroke="#1B1F1B" stroke-width="25.5818" stroke-linecap="round"/>
<path d="M327.391 348.845V154.545" stroke="#1B1F1B" stroke-width="25.5818" stroke-linecap="round"/>
</svg>
