<svg width="1304" height="893" viewBox="0 0 1304 893" fill="none" xmlns="http://www.w3.org/2000/svg">
<path fill-rule="evenodd" clip-rule="evenodd" d="M544.145 893C546.907 893 549.145 890.761 549.145 888L549.145 4.99994C549.145 2.23853 546.907 -6.10352e-05 544.145 -6.10352e-05L386.514 0C383.752 0 381.514 2.23859 381.514 5L381.514 486.338H424.112C426.873 486.338 429.112 488.577 429.112 491.338L429.112 888C429.112 890.761 426.873 893 424.112 893L386.498 893C386.503 893 386.508 893 386.514 893L544.145 893Z" fill="white"/>
<path fill-rule="evenodd" clip-rule="evenodd" d="M176.631 486.338H132.997C130.236 486.338 127.997 488.577 127.997 491.338L127.997 888C127.997 890.758 130.23 892.994 132.987 893L14 893C11.2386 893 9.00003 890.761 9.00003 888L9 5.00006C9 2.23865 11.2386 6.10352e-05 14 6.10352e-05H171.631C174.393 6.10352e-05 176.631 2.23859 176.631 5L176.631 486.338Z" fill="white"/>
<path fill-rule="evenodd" clip-rule="evenodd" d="M237.876 893C240.628 892.989 242.855 890.755 242.855 888L242.855 491.338C242.855 488.577 240.617 486.338 237.855 486.338H195.258V4.99994C195.258 2.23859 197.496 6.10352e-05 200.258 6.10352e-05L357.889 -6.10352e-05C360.65 -6.10352e-05 362.889 2.23859 362.889 4.99994V486.338H320.287C317.525 486.338 315.287 488.577 315.287 491.338V888C315.287 890.756 317.518 892.992 320.271 893L237.876 893Z" fill="white"/>
<path fill-rule="evenodd" clip-rule="evenodd" d="M1289.55 893C1292.31 893 1294.55 890.761 1294.55 888L1294.55 5C1294.55 2.23859 1292.31 0 1289.55 0L1131.92 6.10352e-05C1129.16 6.10352e-05 1126.92 2.23865 1126.92 5.00006L1126.92 486.338H1168.48C1171.24 486.338 1173.48 488.577 1173.48 491.338L1173.48 888C1173.48 890.761 1171.24 893 1168.48 893L1131.9 893C1131.91 893 1131.91 893 1131.92 893L1289.55 893Z" fill="white"/>
<path fill-rule="evenodd" clip-rule="evenodd" d="M1064.66 486.338L1108.29 486.338V5C1108.29 2.23859 1106.05 0 1103.29 0L945.66 6.10352e-05C942.898 6.10352e-05 940.66 2.23859 940.66 5V486.338H982.223C984.984 486.338 987.223 488.577 987.223 491.338L987.223 888C987.223 890.761 984.984 893 982.223 893H1064.64C1061.89 892.992 1059.66 890.756 1059.66 888V491.338C1059.66 488.577 1061.89 486.338 1064.66 486.338ZM945.645 893C945.65 893 945.655 893 945.66 893L982.223 893L945.645 893Z" fill="white"/>
<path fill-rule="evenodd" clip-rule="evenodd" d="M735.776 486.338H692.142C689.38 486.338 687.142 488.577 687.142 491.338L687.142 888C687.142 890.758 689.374 892.994 692.131 893L573.145 893C570.383 893 568.145 890.761 568.145 888L568.145 5.00006C568.145 2.23865 570.383 6.10352e-05 573.145 6.10352e-05H730.776C733.537 6.10352e-05 735.776 2.23859 735.776 5L735.776 486.338Z" fill="white"/>
<path fill-rule="evenodd" clip-rule="evenodd" d="M878.398 486.338L922.031 486.338V5C922.031 2.23859 919.793 0 917.031 0L759.4 6.10352e-05C756.639 6.10352e-05 754.4 2.23859 754.4 5V486.338H795.965C798.726 486.338 800.965 488.577 800.965 491.338L800.965 888C800.965 890.761 798.726 893 795.965 893H878.383C875.629 892.992 873.398 890.756 873.398 888V491.338C873.398 488.577 875.637 486.338 878.398 486.338ZM759.385 893C759.39 893 759.395 893 759.4 893L795.965 893L759.385 893Z" fill="white"/>
</svg>
