<svg width="1304" height="893" viewBox="0 0 1304 893" fill="none" xmlns="http://www.w3.org/2000/svg">
<path fill-rule="evenodd" clip-rule="evenodd" d="M544.145 9.18438e-05C546.907 9.23835e-05 549.145 2.23865 549.145 5.00007L549.145 888C549.145 890.761 546.907 893 544.145 893L386.514 893C383.752 893 381.514 890.761 381.514 888L381.514 406.662H424.112C426.873 406.662 429.112 404.423 429.112 401.662L429.112 5.0001C429.112 2.23867 426.873 9.24246e-05 424.112 9.19355e-05L386.498 8.5274e-05C386.503 6.91187e-05 386.508 6.10352e-05 386.514 6.10352e-05L544.145 9.18438e-05Z" fill="white"/>
<path fill-rule="evenodd" clip-rule="evenodd" d="M176.631 406.662H132.997C130.236 406.662 127.997 404.423 127.997 401.662L127.997 5.00001C127.997 2.24216 130.23 0.00580425 132.987 2.22983e-05L14 0C11.2386 0 9.00003 2.23857 9.00003 5L9 888C9 890.761 11.2386 893 14 893H171.631C174.393 893 176.631 890.761 176.631 888L176.631 406.662Z" fill="white"/>
<path fill-rule="evenodd" clip-rule="evenodd" d="M237.876 7.06008e-05C240.628 0.0110945 242.855 2.24543 242.855 5.00004L242.855 401.662C242.855 404.423 240.617 406.662 237.855 406.662H195.258V888C195.258 890.761 197.496 893 200.258 893L357.889 893C360.65 893 362.889 890.761 362.889 888V406.662H320.287C317.525 406.662 315.287 404.423 315.287 401.662V5.00006C315.287 2.24377 317.518 0.00839233 320.271 9.15527e-05L237.876 7.06008e-05Z" fill="white"/>
<path fill-rule="evenodd" clip-rule="evenodd" d="M1289.55 3.08087e-05C1292.31 3.13484e-05 1294.55 2.23859 1294.55 5.00001L1294.55 888C1294.55 890.761 1292.31 893 1289.55 893L1131.92 893C1129.16 893 1126.92 890.761 1126.92 888L1126.92 406.662H1168.48C1171.24 406.662 1173.48 404.423 1173.48 401.662L1173.48 5.00004C1173.48 2.23861 1171.24 3.13894e-05 1168.48 3.09004e-05L1131.9 2.44221e-05C1131.91 8.14468e-06 1131.91 0 1131.92 0L1289.55 3.08087e-05Z" fill="white"/>
<path fill-rule="evenodd" clip-rule="evenodd" d="M1064.66 406.662L1108.29 406.662V888C1108.29 890.761 1106.05 893 1103.29 893L945.66 893C942.898 893 940.66 890.761 940.66 888V406.662H982.223C984.984 406.662 987.223 404.423 987.223 401.662L987.223 5.00004C987.223 2.23861 984.984 3.05176e-05 982.223 3.05176e-05H1064.64C1061.89 0.00830078 1059.66 2.24371 1059.66 5V401.662C1059.66 404.423 1061.89 406.662 1064.66 406.662ZM945.645 2.37275e-05C945.65 7.91297e-06 945.655 0 945.66 0L982.223 3.05176e-05L945.645 2.37275e-05Z" fill="white"/>
<path fill-rule="evenodd" clip-rule="evenodd" d="M735.776 406.662H692.142C689.38 406.662 687.142 404.423 687.142 401.662L687.142 5.00001C687.142 2.24213 689.374 0.00575697 692.131 2.22982e-05L573.145 0C570.383 0 568.145 2.23857 568.145 5L568.145 888C568.145 890.761 570.383 893 573.145 893H730.776C733.537 893 735.776 890.761 735.776 888L735.776 406.662Z" fill="white"/>
<path fill-rule="evenodd" clip-rule="evenodd" d="M878.398 406.662L922.031 406.662V888C922.031 890.761 919.793 893 917.031 893L759.4 893C756.639 893 754.4 890.761 754.4 888V406.662H795.965C798.726 406.662 800.965 404.423 800.965 401.662L800.965 5.00004C800.965 2.23861 798.726 3.05176e-05 795.965 3.05176e-05H878.383C875.629 0.00830078 873.398 2.24371 873.398 5V401.662C873.398 404.423 875.637 406.662 878.398 406.662ZM759.385 2.37272e-05C759.39 7.91285e-06 759.395 0 759.4 0L795.965 3.05176e-05L759.385 2.37272e-05Z" fill="white"/>
</svg>
