<svg xmlns="http://www.w3.org/2000/svg" viewBox="0 0 143.46 248.37"><defs><style>.cls-1{fill:#fbfffb;}</style></defs><g id="Layer_2" data-name="Layer 2"><g id="Layer_1-2" data-name="Layer 1"><path class="cls-1" d="M84.49,173.15a93.13,93.13,0,0,1-2.8,30.61l9.23-5.24c-16.5-2.94-37.5,2.35-41.06,21.35-1.46,7.79.25,16.36,6.24,21.91,6.83,6.33,17.15,6.91,26,6.48,19.8-1,36.12-10.36,45-28.35,9.06-18.36,13.33-38.73,15.22-59,2.19-23.58.86-47.31-.55-70.89-.57-9.59-15.58-9.66-15,0,1.94,32.45,4.05,65.87-4,97.71-3.4,13.48-8.26,31.68-20.75,39.65a39.68,39.68,0,0,1-18.41,5.77c-4.82.36-14,1.4-17.67-2.63-3.22-3.5-1.59-9.89,1.25-13,4.75-5.21,13.26-5.7,19.73-4.55,3.95.71,8.11-1,9.22-5.23a106,106,0,0,0,3.34-34.6c-.68-9.57-15.69-9.65-15,0Z"/><path class="cls-1" d="M132.78,79.57a948.5,948.5,0,0,0-96.27-2.13c-9.63.27-9.67,15.27,0,15a948.5,948.5,0,0,1,96.27,2.13c9.63.71,9.59-14.3,0-15Z"/><path class="cls-1" d="M59,75.22a93.13,93.13,0,0,1,2.8-30.61l-9.23,5.24C69,52.78,90,47.5,93.6,28.5c1.46-7.79-.25-16.36-6.24-21.91C80.53.26,70.21-.32,61.37.11c-19.8,1-36.12,10.36-45,28.35C7.32,46.82,3.05,67.18,1.16,87.45-1,111,.3,134.75,1.71,158.33c.57,9.6,15.58,9.66,15,0-1.94-32.44-4.05-65.86,4-97.7C24.08,47.15,28.94,29,41.43,21A39.69,39.69,0,0,1,59.84,15.2c4.82-.35,14-1.39,17.67,2.64,3.21,3.49,1.59,9.89-1.25,13C71.51,36.05,63,36.53,56.53,35.38c-4-.7-8.11,1-9.22,5.24A105.94,105.94,0,0,0,44,75.22c.68,9.57,15.69,9.65,15,0Z"/><path class="cls-1" d="M10.68,168.79A948.5,948.5,0,0,0,107,170.93c9.63-.27,9.67-15.27,0-15a948.5,948.5,0,0,1-96.27-2.14c-9.63-.7-9.59,14.3,0,15Z"/></g></g></svg>