<svg xmlns="http://www.w3.org/2000/svg" viewBox="0 0 157.77 212.04"><defs><style>.cls-1{fill:#fbfffb;}</style></defs><g id="Layer_2" data-name="Layer 2"><g id="Layer_1-2" data-name="Layer 1"><path class="cls-1" d="M58.27,75.2a93.13,93.13,0,0,1,2.8-30.61l-9.23,5.24c16.46,2.93,36.79-2.18,40.94-20.75,1.73-7.76,0-16.36-5.68-22.12C80.76.57,70.7-.2,62.2,0,43,.55,26.1,8.92,16.83,26.21,9,40.76,3.12,57.57,1,74-1.29,91.15,1,108.64,2,125.82c.59,9.59,15.59,9.66,15,0-.77-12.77-2.12-25.6-2-38.41a99.13,99.13,0,0,1,5.33-30.65c4.17-12.56,9.08-28.89,21-36.2A40.26,40.26,0,0,1,59.9,15.14c4.7-.29,13.35-1.2,16.91,2.68,3.41,3.71,1.45,10.45-1.77,13.5-5,4.69-12.83,5.18-19.21,4-4-.71-8.11,1-9.22,5.23a106,106,0,0,0-3.34,34.6c.68,9.57,15.69,9.65,15,0Z"/><path class="cls-1" d="M4.68,132.58C18.32,147.74,36.48,159.5,57.55,159c20.55-.48,38.69-11.44,54-24.29,7.41-6.22-3.25-16.78-10.6-10.61C88.81,134.3,73.88,143.63,57.55,144c-17.22.4-31.2-9.74-42.27-22-6.47-7.19-17,3.45-10.6,10.61Z"/><path class="cls-1" d="M99.49,136.84a92.86,92.86,0,0,1-2.79,30.61l9.22-5.24C89.46,159.28,69.14,164.39,65,183c-1.74,7.76,0,16.36,5.68,22.12,6.34,6.4,16.4,7.16,24.9,6.93,19.22-.52,36.1-8.89,45.37-26.18,7.8-14.54,13.71-31.36,15.87-47.76,2.25-17.18,0-34.66-1.08-51.85-.58-9.59-15.59-9.66-15,0,.78,12.78,2.13,25.6,2,38.41a99.09,99.09,0,0,1-5.34,30.65c-4.16,12.57-9.07,28.9-21,36.2a40.18,40.18,0,0,1-18.55,5.42c-4.69.29-13.34,1.2-16.91-2.68-3.4-3.7-1.45-10.45,1.78-13.5,4.94-4.68,12.83-5.18,19.21-4,4,.7,8.11-1,9.22-5.24a106,106,0,0,0,3.33-34.6c-.67-9.57-15.68-9.65-15,0Z"/><path class="cls-1" d="M153.09,79.46C139.45,64.3,121.28,52.54,100.22,53c-20.55.48-38.7,11.44-54,24.3-7.4,6.21,3.26,16.77,10.61,10.6C69,77.74,83.88,68.41,100.22,68c17.22-.4,31.2,9.74,42.26,22,6.47,7.19,17.05-3.44,10.61-10.61Z"/></g></g></svg>