<svg width="497" height="497" viewBox="0 0 497 497" fill="none" xmlns="http://www.w3.org/2000/svg">
<path d="M123 364V134.185H182.865C192.701 134.185 201.969 134.941 210.67 136.454C219.56 137.968 227.41 140.899 234.219 145.25C241.029 149.411 246.325 155.464 250.108 163.408C254.08 171.163 256.066 181.472 256.066 194.334C256.066 203.602 254.647 211.452 251.81 217.883C249.162 224.125 245.284 229.137 240.177 232.92C235.26 236.703 229.301 239.256 222.303 240.581C231.193 241.715 238.664 244.647 244.717 249.376C250.77 253.915 255.309 260.063 258.336 267.818C261.551 275.573 263.159 284.936 263.159 295.906C263.159 307.823 261.551 318.131 258.336 326.832C255.309 335.344 250.864 342.342 245.001 347.828C239.137 353.313 231.855 357.38 223.154 360.028C214.642 362.676 204.807 364 193.647 364H123ZM173.786 328.535H184.568C195.728 328.535 203.388 325.697 207.549 320.023C211.9 314.348 214.075 306.026 214.075 295.055C214.075 286.354 213.129 279.451 211.238 274.344C209.346 269.236 206.225 265.548 201.875 263.278C197.524 260.819 191.661 259.59 184.284 259.59H173.786V328.535ZM173.786 226.111H183.717C191.472 226.111 197.335 224.976 201.307 222.706C205.28 220.247 207.928 216.748 209.252 212.208C210.765 207.669 211.521 202.183 211.521 195.752C211.521 189.7 210.387 184.687 208.117 180.715C206.036 176.554 202.821 173.433 198.47 171.352C194.309 169.272 189.013 168.231 182.582 168.231H173.786V226.111Z" fill="#1B1F1B"/>
<path fill-rule="evenodd" clip-rule="evenodd" d="M287.159 341V83H298.475V185.974L373.159 150.895V413.421H361.843L360.712 305.921L287.159 341ZM299.607 219.921V303.658L361.843 273.105V189.368L299.607 219.921Z" fill="#1B1F1B"/>
<rect x="12.5" y="12.5" width="472" height="472" rx="43.5" stroke="#1B1F1B" stroke-width="25"/>
</svg>
