<svg width="1401" height="247" viewBox="0 0 1401 247" fill="none" xmlns="http://www.w3.org/2000/svg">
<g clip-path="url(#clip0_12_493)">
<path d="M0 122.955C10.0477 119.793 102.682 64 159.937 64C217.192 64 234.863 122.955 282.069 122.955C329.275 122.955 336.937 83 396.937 86.5C456.937 90 477.937 138.5 530.437 141C582.937 143.5 635.937 97.5 671.437 106C706.937 114.5 723.752 175.03 795.262 175.03C866.773 175.03 855.025 122.955 949.437 122.955C1043.85 122.955 1121.27 224.286 1227.13 224.286C1332.99 224.286 1401.94 107.5 1401.94 107.5C1401.94 107.5 1420.94 -85.837 1410.58 -175L0 -175L0 122.955Z" fill="white" fill-opacity="0.33"/>
<path d="M0 101.955C10.0477 98.7925 102.682 43 159.937 43C217.192 43 236.731 98 283.937 98C331.144 98 346.437 59.5 404.937 66.5C463.437 73.5 464.671 117 528.937 117C593.203 117 633.437 81 673.437 87.5C713.437 94 723.752 154.03 795.262 154.03C866.773 154.03 855.025 101.955 949.437 101.955C1043.85 101.955 1121.27 203.286 1227.13 203.286C1332.99 203.286 1408 81.4999 1408 81.4999C1408 81.4999 1420.94 -106.837 1410.58 -196L0 -196L0 101.955Z" fill="white" fill-opacity="0.66"/>
<path d="M0 83.6843C10.0477 80.5219 103.293 16.7117 160.548 16.7117C217.803 16.7117 234.863 63.9549 282.069 63.9549C329.275 63.9549 337.437 43 395.437 44.5C453.437 46 467.937 86.9328 522.437 91C576.937 95.0672 639.621 55.4098 676.779 63.9549C713.937 72.5 723.752 116.03 795.262 116.03C866.773 116.03 852.517 79.1211 946.93 79.1211C1041.34 79.1211 1121.27 165.286 1227.13 165.286C1332.99 165.286 1410.58 63.9549 1410.58 63.9549C1410.58 63.9549 1420.94 -144.837 1410.58 -234L0 -234L0 83.6843Z" fill="white"/>
</g>
<defs>
<clipPath id="clip0_12_493">
<rect width="1401" height="247" fill="white"/>
</clipPath>
</defs>
</svg>
