<svg width="1401" height="243" viewBox="0 0 1401 243" fill="none" xmlns="http://www.w3.org/2000/svg">
<g clip-path="url(#clip0_11_451)">
<path d="M1401 125.045C1390.95 128.207 1298.32 184 1241.06 184C1183.81 184 1166.14 125.045 1118.93 125.045C1071.72 125.045 1064.06 165 1004.06 161.5C944.063 158 923.063 109.5 870.563 107C818.063 104.5 765.063 150.5 729.563 142C694.063 133.5 677.248 72.9703 605.738 72.9703C534.227 72.9703 545.975 125.045 451.563 125.045C357.15 125.045 279.734 23.7139 173.871 23.7139C68.0072 23.7138 -0.937256 140.5 -0.937256 140.5C-0.937256 140.5 -19.9398 333.837 -9.57935 423L1401 423V125.045Z" fill="white" fill-opacity="0.33"/>
<path d="M1401 146.045C1390.95 149.207 1298.32 205 1241.06 205C1183.81 205 1164.27 150 1117.06 150C1069.86 150 1054.56 188.5 996.063 181.5C937.563 174.5 936.329 131 872.063 131C807.797 131 767.563 167 727.563 160.5C687.563 154 677.248 93.9703 605.738 93.9703C534.227 93.9703 545.975 146.045 451.563 146.045C357.15 146.045 279.734 44.7139 173.871 44.7139C68.0072 44.7138 -7 166.5 -7 166.5C-7 166.5 -19.9398 354.837 -9.57935 444L1401 444V146.045Z" fill="white" fill-opacity="0.66"/>
<path d="M1401 164.316C1390.95 167.478 1297.71 231.288 1240.45 231.288C1183.2 231.288 1166.14 184.045 1118.93 184.045C1071.72 184.045 1063.56 205 1005.56 203.5C947.563 202 933.063 161.067 878.563 157C824.063 152.933 761.379 192.59 724.221 184.045C687.063 175.5 677.248 131.97 605.738 131.97C534.227 131.97 548.483 168.879 454.07 168.879C359.658 168.879 279.734 82.7139 173.871 82.7139C68.0072 82.7138 -9.57935 184.045 -9.57935 184.045C-9.57935 184.045 -19.9398 392.837 -9.57935 482L1401 482V164.316Z" fill="white"/>
</g>
<defs>
<clipPath id="clip0_11_451">
<rect width="1401" height="243" fill="white" transform="translate(1401 243) rotate(180)"/>
</clipPath>
</defs>
</svg>
