<svg width="1401" height="243" viewBox="0 0 1401 243" fill="none" xmlns="http://www.w3.org/2000/svg">
<g clip-path="url(#clip0_11_451)">
<path d="M0 125.045C10.0477 128.207 102.682 184 159.937 184C217.192 184 234.863 125.045 282.069 125.045C329.275 125.045 336.937 165 396.937 161.5C456.937 158 477.937 109.5 530.437 107C582.937 104.5 635.937 150.5 671.437 142C706.937 133.5 723.752 72.9703 795.262 72.9703C866.773 72.9703 855.025 125.045 949.437 125.045C1043.85 125.045 1121.27 23.7139 1227.13 23.7139C1332.99 23.7138 1401.94 140.5 1401.94 140.5C1401.94 140.5 1420.94 333.837 1410.58 423L0 423L0 125.045Z" fill="#1B1F1B" fill-opacity="0.33"/>
<path d="M0 146.045C10.0477 149.207 102.682 205 159.937 205C217.192 205 236.731 150 283.937 150C331.144 150 346.437 188.5 404.937 181.5C463.437 174.5 464.671 131 528.937 131C593.203 131 633.437 167 673.437 160.5C713.437 154 723.752 93.9703 795.262 93.9703C866.773 93.9703 855.025 146.045 949.437 146.045C1043.85 146.045 1121.27 44.7139 1227.13 44.7139C1332.99 44.7138 1408 166.5 1408 166.5C1408 166.5 1420.94 354.837 1410.58 444L0 444L0 146.045Z" fill="#1B1F1B" fill-opacity="0.66"/>
<path d="M0 164.316C10.0477 167.478 103.293 231.288 160.548 231.288C217.803 231.288 234.863 184.045 282.069 184.045C329.275 184.045 337.437 205 395.437 203.5C453.437 202 467.937 161.067 522.437 157C576.937 152.933 639.621 192.59 676.779 184.045C713.937 175.5 723.752 131.97 795.262 131.97C866.773 131.97 852.517 168.879 946.93 168.879C1041.34 168.879 1121.27 82.7139 1227.13 82.7139C1332.99 82.7138 1410.58 184.045 1410.58 184.045C1410.58 184.045 1420.94 392.837 1410.58 482L0 482L0 164.316Z" fill="#1B1F1B"/>
</g>
<defs>
<clipPath id="clip0_11_451">
<rect width="1401" height="243" fill="white" transform="matrix(1 0 0 -1 0 243)"/>
</clipPath>
</defs>
</svg>
